<?xml version="1.0" encoding="UTF-8"?>
<svg id="Layer_1" xmlns="http://www.w3.org/2000/svg" version="1.1" viewBox="0 0 1000 375">
  <!-- Generator: Adobe Illustrator 30.1.0, SVG Export Plug-In . SVG Version: 2.1.1 Build 136)  -->
  <defs>
    <style>
      .st0 {
        fill: #f7f2eb;
      }

      .st1 {
        fill: #eb5e5c;
      }

      .st2 {
        fill: #06aed5;
      }
    </style>
  </defs>
  <rect class="st0" x="-9" y="-9" width="1018" height="393"/>
  <path class="st2" d="M86.46,127.98l-6.12-27.2c-.54-2.49-1.03-4.62-1.46-6.39-.43-1.77-.83-3.31-1.19-4.62-.36-1.31-.73-2.54-1.09-3.67h-2.99c-.27-.72-.41-1.36-.41-1.9,0-.5.14-.89.41-1.19.27-.29.73-.44,1.36-.44h11.76c.27.73.41,1.36.41,1.9,0,1.09-.59,1.63-1.77,1.63h-1.9c.36,2.22.83,4.81,1.39,7.75.57,2.95,1.19,6.06,1.87,9.35.68,3.29,1.38,6.53,2.11,9.72.72,3.2,1.43,6.18,2.11,8.94.63-2.27,1.31-4.76,2.04-7.48.72-2.72,1.46-5.54,2.21-8.47.75-2.92,1.46-5.81,2.14-8.67.68-2.86,1.29-5.54,1.84-8.06s1-4.73,1.36-6.63h4.69c1.22,0,2.13.23,2.72.68.59.45,1.02,1.36,1.29,2.72.5,2.31,1.11,4.94,1.84,7.89.72,2.95,1.5,6.04,2.31,9.28.82,3.24,1.65,6.47,2.52,9.69.86,3.22,1.68,6.23,2.45,9.04.72-2.76,1.45-5.76,2.18-8.98.72-3.22,1.42-6.46,2.07-9.72.66-3.26,1.27-6.37,1.84-9.32.57-2.95,1.05-5.53,1.46-7.75h-3.33c-.23-.72-.34-1.36-.34-1.9,0-1.09.59-1.63,1.77-1.63h10.81c.27.73.41,1.36.41,1.9,0,.5-.14.9-.41,1.19-.27.3-.73.44-1.36.44h-2.04c-.36,1.36-.74,2.81-1.12,4.35-.39,1.54-.76,3.16-1.12,4.86-.36,1.7-.75,3.5-1.16,5.41l-5.44,24.14c-.27,1.18-.67,2-1.19,2.45-.52.45-1.33.68-2.41.68h-4.96l-9.79-38.56-9.11,35.43c-.27,1.22-.64,2.05-1.09,2.48-.45.43-1.27.65-2.45.65h-5.1Z"/>
  <path class="st2" d="M139.97,124.45h1.77c.09-1.63.15-3.42.17-5.37.02-1.95.03-3.83.03-5.64v-25.57c0-1.45-.19-2.39-.58-2.82-.39-.43-1.1-.65-2.14-.65h-.75c-.14-.41-.24-.78-.31-1.12s-.1-.67-.1-.99c0-1.09.63-1.63,1.9-1.63h7.68c0,1.68-.03,3.72-.1,6.12-.07,2.4-.1,4.69-.1,6.87v5.24c1.31-1.22,2.8-2.15,4.45-2.79,1.65-.63,3.39-.95,5.2-.95,3.22,0,5.68.85,7.38,2.55,1.7,1.7,2.55,4.48,2.55,8.33v14.96c0,1,.07,1.75.2,2.24.14.5.36.83.68.99.32.16.77.24,1.36.24h1.16c.09.32.17.64.24.95.07.32.1.64.1.95,0,1.09-.61,1.63-1.84,1.63h-7.62c0-1.13.01-2.46.03-3.98.02-1.52.06-3.09.1-4.73.04-1.63.07-3.15.07-4.56v-5.1c0-2.45-.23-4.41-.68-5.88-.45-1.47-1.19-2.54-2.21-3.2-1.02-.66-2.37-.99-4.05-.99-2.4,0-4.19.7-5.37,2.11-1.18,1.41-1.77,3.54-1.77,6.39v10.64c0,1.97.04,3.89.14,5.75h3.2c.14.32.24.64.31.95.07.32.1.64.1.95,0,1.09-.61,1.63-1.84,1.63h-10.88c-.14-.36-.24-.69-.31-.99-.07-.29-.1-.6-.1-.92,0-1.09.63-1.63,1.9-1.63Z"/>
  <path class="st2" d="M200.9,127.3l-5.1.68c-.32-.45-.6-1.01-.85-1.67-.25-.66-.42-1.26-.51-1.8-1.18,1.45-2.55,2.51-4.11,3.16-1.56.66-3.37.99-5.41.99-2.81,0-5.13-.79-6.97-2.38-1.84-1.59-2.75-3.94-2.75-7.07s1.1-5.55,3.3-7.28c2.2-1.72,5.68-2.58,10.44-2.58h4.83v-1.9c0-2.27-.25-4-.75-5.2-.5-1.2-1.37-2.04-2.62-2.52-1.25-.48-3-.71-5.27-.71h-1.97l-1.02,3.67c-.41.18-.9.34-1.46.48-.57.14-1.12.2-1.67.2-.5,0-.99-.19-1.46-.58-.48-.38-.86-.88-1.16-1.5-.3-.61-.44-1.23-.44-1.87,0-.54.19-1.01.58-1.39s1.05-.78,2.01-1.19c1.18-.45,2.66-.85,4.45-1.19,1.79-.34,3.71-.51,5.75-.51,3.72,0,6.4.77,8.06,2.31,1.65,1.54,2.48,4.28,2.48,8.23v15.44c0,1.13.16,1.87.48,2.21.32.34.88.51,1.7.51h1.29c.09.27.17.54.24.82.07.27.1.57.1.88,0,.54-.16.95-.48,1.22-.32.27-.88.45-1.7.54ZM193.76,117.1v-3.81h-5.64c-2.72,0-4.59.49-5.61,1.46-1.02.98-1.53,2.28-1.53,3.91,0,1.81.48,3.21,1.43,4.18.95.98,2.33,1.46,4.15,1.46,2.45,0,4.26-.65,5.44-1.94,1.18-1.29,1.77-3.05,1.77-5.27Z"/>
  <path class="st2" d="M210.56,118.6v-18.77h-4.76c-.14-.36-.25-.71-.34-1.05-.09-.34-.14-.71-.14-1.12,0-1.22.66-1.84,1.97-1.84h3.26l1.7-7.41,1.5.14c.91.05,1.52.26,1.84.65.32.39.48,1.15.48,2.28v4.35h10c.14.36.24.71.31,1.05.07.34.1.71.1,1.12,0,1.22-.64,1.84-1.9,1.84h-8.5v17.54c0,2.54.32,4.32.95,5.34.63,1.02,1.68,1.53,3.13,1.53.86,0,1.63-.18,2.31-.54.68-.36,1.29-.84,1.84-1.43.59.14,1.11.44,1.56.92.45.48.68,1.03.68,1.67,0,.91-.69,1.77-2.07,2.58-1.38.82-3.19,1.22-5.41,1.22-2.95,0-5.1-.84-6.46-2.52-1.36-1.68-2.04-4.19-2.04-7.55Z"/>
  <path class="st2" d="M231.09,92.28h.75c1.4,0,2.49-.43,3.26-1.29.77-.86,1.27-2.02,1.5-3.47-1.36-.09-2.41-.45-3.16-1.09-.75-.63-1.12-1.52-1.12-2.65s.37-1.99,1.12-2.72c.75-.72,1.82-1.09,3.23-1.09,1.59,0,2.73.47,3.43,1.39.7.93,1.05,2.21,1.05,3.84,0,2-.43,3.8-1.29,5.41-.86,1.61-1.96,2.87-3.3,3.77-1.34.91-2.71,1.36-4.11,1.36-.73,0-1.24-.14-1.53-.41-.3-.27-.44-.63-.44-1.09,0-.36.06-.7.17-1.02.11-.32.26-.63.44-.95Z"/>
  <path class="st2" d="M267.06,118.6c0,2.9-1.09,5.3-3.26,7.21-2.18,1.9-5.28,2.86-9.32,2.86-2.54,0-4.74-.33-6.6-.99-1.86-.66-3.29-1.45-4.28-2.38-1-.93-1.5-1.85-1.5-2.75,0-.77.28-1.43.85-1.97.57-.54,1.23-.95,2.01-1.22,1.04,1.36,2.32,2.57,3.84,3.64,1.52,1.07,3.48,1.6,5.88,1.6,2.27,0,3.98-.42,5.13-1.26,1.16-.84,1.73-1.98,1.73-3.43s-.59-2.64-1.77-3.43c-1.18-.79-2.83-1.48-4.96-2.07l-2.92-.82c-2.99-.82-5.21-1.95-6.66-3.4-1.45-1.45-2.18-3.33-2.18-5.64,0-1.86.48-3.49,1.43-4.9.95-1.4,2.3-2.5,4.05-3.3,1.74-.79,3.84-1.19,6.29-1.19,2.31,0,4.27.31,5.88.92,1.61.61,2.84,1.36,3.71,2.24.86.88,1.29,1.76,1.29,2.62,0,.73-.26,1.33-.78,1.8-.52.48-1.19.81-2.01.99l-.82.2-.41-.61c-.86-1.18-1.93-2.15-3.2-2.92-1.27-.77-2.81-1.16-4.62-1.16-1.63,0-2.94.39-3.91,1.16-.98.77-1.46,1.81-1.46,3.13s.44,2.3,1.33,3.09c.88.79,2.32,1.44,4.32,1.94l2.86.82c3.58.91,6.15,2.1,7.72,3.57,1.56,1.47,2.35,3.37,2.35,5.68Z"/>
  <path class="st2" d="M287.31,91.74v-14.14c0-1.72-.01-3.57-.03-5.54-.02-1.97-.03-3.91-.03-5.81h-3.54c-.23-.72-.34-1.36-.34-1.9,0-1.09.59-1.63,1.77-1.63h11.7c.27.73.41,1.36.41,1.9,0,1.09-.59,1.63-1.77,1.63h-2.04c-.05,1.86-.08,3.79-.1,5.78-.02,2-.03,3.85-.03,5.58v12.65c0,3.63.42,6.46,1.26,8.5.84,2.04,2.05,3.47,3.64,4.28,1.59.82,3.56,1.22,5.92,1.22,2.18,0,4.03-.41,5.58-1.22,1.54-.82,2.73-2.18,3.57-4.08.84-1.9,1.26-4.44,1.26-7.62v-13.74c0-1.72-.01-3.58-.03-5.58-.02-1.99-.03-3.92-.03-5.78h-3.26c-.23-.72-.34-1.36-.34-1.9,0-1.09.59-1.63,1.77-1.63h10.74c.27.73.41,1.36.41,1.9,0,1.09-.59,1.63-1.77,1.63h-1.9c-.05,1.18-.08,2.44-.1,3.77-.02,1.34-.03,2.65-.03,3.94v15.95c0,4.58-.68,8.25-2.04,11.02-1.36,2.77-3.29,4.77-5.78,6.02-2.49,1.25-5.46,1.87-8.91,1.87-5.35.04-9.34-1.28-11.97-3.98-2.63-2.7-3.94-7.06-3.94-13.09Z"/>
  <path class="st2" d="M329.53,114.99h2.04c.04-1.86.08-3.68.1-5.47.02-1.79.03-3.5.03-5.13v-17.2c0-1.59-.01-3.29-.03-5.1-.02-1.81-.06-3.63-.1-5.44h-3.4c-.27-.72-.41-1.36-.41-1.9,0-1.09.59-1.63,1.77-1.63h15.71c3.72,0,6.81.51,9.28,1.53,2.47,1.02,4.34,2.55,5.61,4.59,1.27,2.04,1.9,4.6,1.9,7.68,0,4.76-1.66,8.39-4.96,10.88-3.31,2.49-7.96,3.74-13.94,3.74h-5.44c0,1.95.01,4.07.03,6.36.02,2.29.08,4.66.17,7.11h4.96c.23.73.34,1.36.34,1.9,0,1.09-.59,1.63-1.77,1.63h-13.26c-.27-.72-.41-1.36-.41-1.9,0-1.09.59-1.63,1.77-1.63ZM337.69,97.11h6.26c4.12,0,7.09-.87,8.91-2.62,1.81-1.74,2.72-4.11,2.72-7.11,0-2.58-.48-4.59-1.43-6.02-.95-1.43-2.4-2.42-4.35-2.99-1.95-.57-4.4-.85-7.34-.85h-4.62c-.09,2.22-.14,4.43-.14,6.63v12.95Z"/>
  <path class="st2" d="M392.08,127.98l-6.6-24.89c-.41-1.45-.86-2.4-1.36-2.86-.5-.45-1.29-.68-2.38-.68h-.75c-.14-.41-.24-.78-.31-1.12-.07-.34-.1-.67-.1-.99,0-.5.14-.89.41-1.19.27-.29.77-.44,1.5-.44h7.21l.95,4.56c.23,1.09.52,2.53.88,4.32.36,1.79.79,3.75,1.29,5.88.5,2.13,1.02,4.25,1.56,6.36.54,2.11,1.09,4.02,1.63,5.75.54-1.63,1.12-3.64,1.73-6.02.61-2.38,1.22-4.88,1.84-7.51.61-2.63,1.18-5.11,1.7-7.45.52-2.33.94-4.29,1.26-5.88h3.6c.95,0,1.7.19,2.24.58.54.39.95,1.1,1.22,2.14.36,1.5.77,3.25,1.22,5.27.45,2.02.94,4.15,1.46,6.39.52,2.24,1.04,4.44,1.56,6.6.52,2.15,1.05,4.11,1.6,5.88.5-1.59,1.02-3.39,1.56-5.41.54-2.02,1.06-4.1,1.56-6.26.5-2.15.97-4.23,1.43-6.22.45-1.99.82-3.74,1.09-5.24h-2.72c-.14-.36-.24-.7-.31-1.02-.07-.32-.1-.66-.1-1.02,0-.5.11-.86.34-1.09s.55-.38.99-.48c.43-.09.96-.14,1.6-.14h8.84c.09.36.17.7.24,1.02.07.32.1.66.1,1.02,0,.54-.14.96-.41,1.26-.27.3-.75.44-1.43.44h-1.84l-6.46,22.92c-.41,1.5-.78,2.64-1.12,3.43-.34.79-.74,1.34-1.19,1.63-.45.3-1.07.44-1.84.44h-4.22c-.14-.45-.36-1.35-.68-2.69-.32-1.34-.71-2.95-1.19-4.83-.48-1.88-.98-3.85-1.5-5.92-.52-2.06-1.03-4.08-1.53-6.05-.5-1.97-.93-3.71-1.29-5.2l-4.83,19.18c-.36,1.54-.7,2.71-1.02,3.5-.32.79-.7,1.33-1.16,1.6-.45.27-1.09.41-1.9.41h-4.42Z"/>
  <path class="st2" d="M434.98,124.45h1.77c.09-1.86.15-3.77.17-5.75.02-1.97.03-3.75.03-5.34v-10.34c0-1.45-.18-2.39-.54-2.82-.36-.43-1.09-.65-2.18-.65h-.75c-.14-.41-.24-.78-.31-1.12-.07-.34-.1-.67-.1-.99,0-1.09.63-1.63,1.9-1.63h7.68c0,1.68-.03,3.65-.1,5.92-.07,2.27-.1,4.49-.1,6.66v4.96c0,1.59.01,3.37.03,5.34.02,1.97.06,3.89.1,5.75h3.26c.09.32.17.64.24.95.07.32.1.64.1.95,0,1.09-.61,1.63-1.84,1.63h-10.88c-.14-.36-.24-.69-.31-.99-.07-.29-.1-.6-.1-.92,0-1.09.63-1.63,1.9-1.63ZM439.13,89.22c-1.59,0-2.68-.28-3.26-.85-.59-.57-.88-1.44-.88-2.62,0-1.09.33-1.94.99-2.55.66-.61,1.71-.92,3.16-.92,1.54,0,2.62.28,3.23.85.61.57.92,1.44.92,2.62,0,1.09-.33,1.94-.99,2.55-.66.61-1.71.92-3.16.92Z"/>
  <path class="st2" d="M453.89,118.6v-18.77h-4.76c-.14-.36-.25-.71-.34-1.05-.09-.34-.14-.71-.14-1.12,0-1.22.66-1.84,1.97-1.84h3.26l1.7-7.41,1.5.14c.91.05,1.52.26,1.84.65.32.39.48,1.15.48,2.28v4.35h10c.14.36.24.71.31,1.05.07.34.1.71.1,1.12,0,1.22-.64,1.84-1.9,1.84h-8.5v17.54c0,2.54.32,4.32.95,5.34.63,1.02,1.68,1.53,3.13,1.53.86,0,1.63-.18,2.31-.54.68-.36,1.29-.84,1.84-1.43.59.14,1.11.44,1.56.92.45.48.68,1.03.68,1.67,0,.91-.69,1.77-2.07,2.58-1.38.82-3.19,1.22-5.41,1.22-2.95,0-5.1-.84-6.46-2.52-1.36-1.68-2.04-4.19-2.04-7.55Z"/>
  <path class="st2" d="M474.83,124.45h1.77c.09-1.63.15-3.42.17-5.37.02-1.95.03-3.83.03-5.64v-25.57c0-1.45-.19-2.39-.58-2.82-.39-.43-1.1-.65-2.14-.65h-.75c-.14-.41-.24-.78-.31-1.12s-.1-.67-.1-.99c0-1.09.63-1.63,1.9-1.63h7.68c0,1.68-.03,3.72-.1,6.12-.07,2.4-.1,4.69-.1,6.87v5.24c1.31-1.22,2.8-2.15,4.45-2.79,1.65-.63,3.39-.95,5.2-.95,3.22,0,5.68.85,7.38,2.55,1.7,1.7,2.55,4.48,2.55,8.33v14.96c0,1,.07,1.75.2,2.24.14.5.36.83.68.99.32.16.77.24,1.36.24h1.16c.09.32.17.64.24.95.07.32.1.64.1.95,0,1.09-.61,1.63-1.84,1.63h-7.62c0-1.13.01-2.46.03-3.98.02-1.52.06-3.09.1-4.73.04-1.63.07-3.15.07-4.56v-5.1c0-2.45-.23-4.41-.68-5.88-.45-1.47-1.19-2.54-2.21-3.2-1.02-.66-2.37-.99-4.05-.99-2.4,0-4.19.7-5.37,2.11-1.18,1.41-1.77,3.54-1.77,6.39v10.64c0,1.97.04,3.89.14,5.75h3.2c.14.32.24.64.31.95.07.32.1.64.1.95,0,1.09-.61,1.63-1.84,1.63h-10.88c-.14-.36-.24-.69-.31-.99-.07-.29-.1-.6-.1-.92,0-1.09.63-1.63,1.9-1.63Z"/>
  <path class="st1" d="M109.56,273.78v-48.19h-42.19v48.19h-22.34v-107.96h22.34v41.16h42.19v-41.16h22.41v107.96h-22.41Z"/>
  <path class="st1" d="M228.65,226.62h-52.44v27.76h59.77v19.41h-81.81v-107.96h79.17v19.12h-57.13v22.92h52.44v18.75Z"/>
  <path class="st1" d="M253.55,165.82h22.56v88.55h53.47v19.41h-76.03v-107.96Z"/>
  <path class="st1" d="M326.14,165.82h24.1l23.44,81.96,23.66-81.96h23.44l-36.84,107.96h-21.31l-36.47-107.96Z"/>
  <path class="st1" d="M509.32,226.62h-52.44v27.76h59.77v19.41h-81.81v-107.96h79.17v19.12h-57.13v22.92h52.44v18.75Z"/>
  <path class="st1" d="M612.66,165.82v19.12h-32.3v88.84h-22.71v-88.84h-32.45v-19.12h87.45Z"/>
  <path class="st1" d="M624.09,165.82h22.41v107.96h-22.41v-107.96Z"/>
  <path class="st1" d="M743.69,265.73c-8.06,7.37-18.36,11.06-30.91,11.06-15.53,0-27.73-4.98-36.62-14.94-8.89-10.01-13.33-23.73-13.33-41.16,0-18.85,5.05-33.37,15.16-43.58,8.79-8.89,19.97-13.33,33.54-13.33,18.16,0,31.45,5.96,39.84,17.87,4.64,6.69,7.13,13.4,7.47,20.14h-22.56c-1.46-5.17-3.34-9.08-5.64-11.72-4.1-4.69-10.18-7.03-18.24-7.03s-14.67,3.31-19.41,9.92c-4.74,6.62-7.1,15.98-7.1,28.09s2.5,21.18,7.51,27.21c5,6.03,11.36,9.05,19.08,9.05s13.94-2.59,18.09-7.76c2.29-2.78,4.2-6.96,5.71-12.52h22.34c-1.95,11.77-6.93,21.34-14.94,28.71Z"/>
  <path class="st1" d="M839.05,251.59h-39.77l-7.47,22.19h-23.58l38.53-107.96h25.49l38.23,107.96h-24.46l-6.96-22.19ZM832.75,232.99l-13.48-42.48-13.92,42.48h27.39Z"/>
  <path class="st2" d="M938.35,206.35c-.99,3.14-1.53,8.02-1.61,14.63h-33.47c.5-13.96,1.82-23.61,3.97-28.94,2.15-5.33,7.68-11.47,16.61-18.41l9.05-7.07c2.97-2.23,5.37-4.67,7.19-7.31,3.3-4.54,4.96-9.54,4.96-15,0-6.28-1.84-12-5.52-17.17-3.68-5.16-10.39-7.75-20.14-7.75s-16.38,3.18-20.39,9.54c-4.01,6.36-6.01,12.97-6.01,19.83h-35.82c.99-23.55,9.21-40.24,24.67-50.08,9.75-6.28,21.73-9.42,35.95-9.42,18.67,0,34.19,4.46,46.54,13.39s18.53,22.15,18.53,39.66c0,10.74-2.69,19.79-8.06,27.14-3.14,4.46-9.17,10.16-18.1,17.11l-8.8,6.82c-4.79,3.72-7.98,8.06-9.54,13.01ZM939.35,273.78h-36.94v-35.82h36.94v35.82Z"/>
</svg>